<?xml version="1.0" encoding="UTF-8"?>
<svg xmlns="http://www.w3.org/2000/svg" style="stroke-dasharray:none; shape-rendering:auto; font-family:'Arial'; text-rendering:auto; fill-opacity:1; color-interpolation:auto; color-rendering:auto; font-size:12; fill:black; stroke:black; image-rendering:auto; stroke-miterlimit:10; stroke-linecap:square; stroke-linejoin:miter; font-style:normal; stroke-width:1; stroke-dashoffset:0; font-weight:normal; stroke-opacity:1;" contentScriptType="text/ecmascript" preserveAspectRatio="xMidYMid meet" zoomAndPan="magnify" version="1.0" contentStyleType="text/css" xml:xlink="http://www.w3.org/1999/xlink" width="1041" height="921"><rect x="0" y="2" width="1041" height="150" ry="0" rx="0" style="stroke:#000000; fill:#ADFFF7" /><g componentSequence="1"><text x="-77" y="7" transform="rotate(270)" text-anchor="middle" style="font-weight:bold;font-size:10px;stroke:none; fill:#434343"><tspan dy="14" x="-77">Analista - Solicitante</tspan></text></g><rect x="0" y="711" width="1041" height="210" ry="0" rx="0" style="stroke:#000000; fill:#A8FFA3" /><g componentSequence="3"><text x="-816" y="7" transform="rotate(270)" text-anchor="middle" style="font-weight:bold;font-size:10px;stroke:none; fill:#434343"><tspan dy="14" x="-816">Diretoria Executiva</tspan></text></g><rect x="0" y="403" width="1041" height="157" ry="0" rx="0" style="stroke:#000000; fill:#9FC1C6" /><g componentSequence="38"><text x="-481" y="7" transform="rotate(270)" text-anchor="middle" style="font-weight:bold;font-size:10px;stroke:none; fill:#434343"><tspan dy="14" x="-481">Resp. Objetivo Estratégico</tspan></text></g><rect x="0" y="559" width="1041" height="150" ry="0" rx="0" style="stroke:#000000; fill:#FF7A7A" /><g componentSequence="4"><text x="-634" y="7" transform="rotate(270)" text-anchor="middle" style="font-weight:bold;font-size:10px;stroke:none; fill:#434343"><tspan dy="14" x="-634">Núcleo de Planejamento ...</tspan></text></g><rect x="0" y="152" width="1041" height="250" ry="0" rx="0" style="stroke:#000000; fill:#C5A1FF" /><g componentSequence="2"><text x="-277" y="7" transform="rotate(270)" text-anchor="middle" style="font-weight:bold;font-size:10px;stroke:none; fill:#434343"><tspan dy="14" x="-277">Gerente do Projeto</tspan></text></g><g sequence="5"><ellipse cx="127" cy="47" rx="17" ry="17" stroke-width="1" style="fill:url(#linearGradient66FF6696FF96B6FFB6_880602704);" stroke="336633" /></g><g sequence="6"><rect x="200" y="170" width="106" height="84" ry="5" rx="5" style="fill:url(#linearGradientF8FBFEEDF5FCDEEDFAD4E7F8E2E5E9_985339567);" stroke="191970" /></g><g componentSequence="6"><text x="253" y="185" text-anchor="middle" style="font-weight:bold;font-size:10px;stroke:none; fill:#333399"><tspan dy="14" x="253">Análise do</tspan><tspan dy="14" x="253">Responsável</tspan><tspan dy="14" x="253">pelo Projeto</tspan></text></g><g sequence="10"><rect x="520" y="51" width="106" height="56" ry="5" rx="5" style="fill:url(#linearGradientF8FBFEEDF5FCDEEDFAD4E7F8E2E5E9_1048872224);" stroke="191970" /></g><g componentSequence="10"><text x="573" y="68" text-anchor="middle" style="font-weight:bold;font-size:10px;stroke:none; fill:#333399"><tspan dy="14" x="573">Ajustes</tspan></text></g><g sequence="15"><rect x="440" y="594" width="106" height="84" ry="5" rx="5" style="fill:url(#linearGradientF8FBFEEDF5FCDEEDFAD4E7F8E2E5E9_2072386708);" stroke="191970" /></g><g componentSequence="15"><text x="493" y="609" text-anchor="middle" style="font-weight:bold;font-size:10px;stroke:none; fill:#333399"><tspan dy="14" x="493">Análise do</tspan><tspan dy="14" x="493">Planejamento</tspan><tspan dy="14" x="493">Estratégico</tspan></text></g><g sequence="17"><polygon points=" 640 620 670 590 700 620 670 650 640 620" style="fill:url(#linearGradientFAFBFCFFFFCC_677077978);" stroke="000000" /></g><g componentSequence="17"><text x="670" y="660" text-anchor="middle" style="font-weight:bold;font-size:10px;stroke:none; fill:#333399"><tspan dy="14" x="670">Validado</tspan><tspan dy="14" x="670">?</tspan></text></g><g sequence="19"><rect x="140" y="770" width="106" height="70" ry="5" rx="5" style="fill:url(#linearGradientF8FBFEEDF5FCDEEDFAD4E7F8E2E5E9_1245120016);" stroke="191970" /></g><g componentSequence="19"><text x="193" y="785" text-anchor="middle" style="font-weight:bold;font-size:10px;stroke:none; fill:#333399"><tspan dy="14" x="193">Análise do</tspan><tspan dy="14" x="193">Diretor Adjunto</tspan></text></g><g sequence="21"><polygon points=" 530 840 560 810 590 840 560 870 530 840" style="fill:url(#linearGradientFAFBFCFFFFCC_1342187507);" stroke="000000" /></g><g componentSequence="21"><text x="560" y="880" text-anchor="middle" style="font-weight:bold;font-size:10px;stroke:none; fill:#333399"><tspan dy="14" x="560">Aprovad</tspan><tspan dy="14" x="560">o?</tspan></text></g><g sequence="27"><rect x="730" y="830" width="106" height="84" ry="5" rx="5" style="fill:url(#linearGradientF8FBFEEDF5FCDEEDFAD4E7F8E2E5E9_464118747);" stroke="191970" /></g><g componentSequence="27"><text x="783" y="845" text-anchor="middle" style="font-weight:bold;font-size:10px;stroke:none; fill:#333399"><tspan dy="14" x="783">Análise da</tspan><tspan dy="14" x="783">Diretora</tspan><tspan dy="14" x="783">Executiva</tspan></text></g><g sequence="29"><polygon points=" 860 750 890 720 920 750 890 780 860 750" style="fill:url(#linearGradientFAFBFCFFFFCC_1746867911);" stroke="000000" /></g><g componentSequence="29"><text x="890" y="790" text-anchor="middle" style="font-weight:bold;font-size:10px;stroke:none; fill:#333399"><tspan dy="14" x="890">Aprovad</tspan><tspan dy="14" x="890">o?</tspan></text></g><g sequence="39"><polygon points=" 60 310 90 280 120 310 90 340 60 310" style="fill:url(#linearGradientFAFBFCFFFFCC_451578450);" stroke="000000" /></g><g componentSequence="39"><text x="90" y="350" text-anchor="middle" style="font-weight:bold;font-size:10px;stroke:none; fill:#333399"><tspan dy="14" x="90">Aprovad</tspan><tspan dy="14" x="90">o?</tspan></text></g><g sequence="41"><rect x="133" y="452" width="106" height="98" ry="5" rx="5" style="fill:url(#linearGradientF8FBFEEDF5FCDEEDFAD4E7F8E2E5E9_1258555715);" stroke="191970" /></g><g componentSequence="41"><text x="186" y="467" text-anchor="middle" style="font-weight:bold;font-size:10px;stroke:none; fill:#333399"><tspan dy="14" x="186">Análise do</tspan><tspan dy="14" x="186">Responsável</tspan><tspan dy="14" x="186">pelo Objetivo</tspan><tspan dy="14" x="186">Estratégico</tspan></text></g><g sequence="43"><polygon points=" 345 494 375 464 405 494 375 524 345 494" style="fill:url(#linearGradientFAFBFCFFFFCC_535272643);" stroke="000000" /></g><g componentSequence="43"><text x="375" y="534" text-anchor="middle" style="font-weight:bold;font-size:10px;stroke:none; fill:#333399"><tspan dy="14" x="375">Aprovad</tspan><tspan dy="14" x="375">o?</tspan></text></g><g sequence="50"><ellipse cx="307" cy="887" rx="17" ry="17" stroke-width="3" style="fill:url(#linearGradientFF6666FF9696FFB6B6_257820886);" stroke="993333" /></g><g sequence="52"><ellipse cx="997" cy="747" rx="17" ry="17" stroke-width="3" style="fill:url(#linearGradientFF6666FF9696FFB6B6_1101577077);" stroke="993333" /></g><g sequence="54"><ellipse cx="967" cy="877" rx="17" ry="17" stroke-width="3" style="fill:url(#linearGradientFF6666FF9696FFB6B6_705559570);" stroke="993333" /></g><g componentSequence="7"><text x="263" y="54" style="font-size:10px;font-weight:none;stroke:none; fill:#333399" text-anchor="left" /></g><g componentSequence="18"><text x="603" y="639" style="font-size:10px;font-weight:none;stroke:none; fill:#333399" text-anchor="left" /></g><g componentSequence="20"><text x="454" y="749" style="font-size:10px;font-weight:none;stroke:none; fill:#333399" text-anchor="left"><tspan dy="14" x="454">Sim</tspan></text></g><g componentSequence="22"><text x="398" y="835" style="font-size:10px;font-weight:none;stroke:none; fill:#333399" text-anchor="left" /></g><g componentSequence="25"><text x="710" y="469" style="font-size:10px;font-weight:none;stroke:none; fill:#333399" text-anchor="left"><tspan dy="14" x="710">Necessário ajustar</tspan></text></g><g componentSequence="26"><text x="610" y="350" style="font-size:10px;font-weight:none;stroke:none; fill:#333399" text-anchor="left"><tspan dy="14" x="610">Necessário ajustar</tspan></text></g><g componentSequence="28"><text x="670" y="866" style="font-size:10px;font-weight:none;stroke:none; fill:#333399" text-anchor="left"><tspan dy="14" x="670">Sim</tspan></text></g><g componentSequence="30"><text x="854" y="815" style="font-size:10px;font-weight:none;stroke:none; fill:#333399" text-anchor="left" /></g><g componentSequence="31"><text x="810" y="360" style="font-size:10px;font-weight:none;stroke:none; fill:#333399" text-anchor="left"><tspan dy="14" x="810">Necessário ajustar</tspan></text></g><g componentSequence="40"><text x="170" y="280" style="font-size:10px;font-weight:none;stroke:none; fill:#333399" text-anchor="left" /></g><g componentSequence="42"><text x="190" y="380" style="font-size:10px;font-weight:none;stroke:none; fill:#333399" text-anchor="left"><tspan dy="14" x="190">Sim e não sou responsável</tspan><tspan dy="14" x="190">pelo Objetivo Estratégico</tspan></text></g><g componentSequence="44"><text x="302" y="509" style="font-size:10px;font-weight:none;stroke:none; fill:#333399" text-anchor="left" /></g><g componentSequence="45"><text x="390" y="650" style="font-size:10px;font-weight:none;stroke:none; fill:#333399" text-anchor="left"><tspan dy="14" x="390">Sim</tspan></text></g><g componentSequence="46"><text x="490" y="250" style="font-size:10px;font-weight:none;stroke:none; fill:#333399" text-anchor="left"><tspan dy="14" x="490">Necessário ajustar</tspan></text></g><g componentSequence="47"><text x="365" y="78" style="font-size:10px;font-weight:none;stroke:none; fill:#333399" text-anchor="left" /></g><g componentSequence="48"><text x="360" y="210" style="font-size:10px;font-weight:none;stroke:none; fill:#333399" text-anchor="left"><tspan dy="14" x="360">Necessário ajustar</tspan></text></g><g componentSequence="49"><text x="299" y="317" style="font-size:10px;font-weight:none;stroke:none; fill:#333399" text-anchor="left"><tspan dy="14" x="299">Sim e sou responsável pelo</tspan><tspan dy="14" x="299">Objetivo Estratégico</tspan></text></g><g componentSequence="51"><text x="438" y="887" style="font-size:10px;font-weight:none;stroke:none; fill:#333399" text-anchor="left"><tspan dy="14" x="438">Não</tspan></text></g><g componentSequence="53"><text x="960" y="758" style="font-size:10px;font-weight:none;stroke:none; fill:#333399" text-anchor="left"><tspan dy="14" x="960">Sim</tspan></text></g><g componentSequence="55"><text x="882" y="885" style="font-size:10px;font-weight:none;stroke:none; fill:#333399" text-anchor="left"><tspan dy="14" x="882">Não</tspan></text></g><path style="fill:none; stroke:#000000;stroke-width:1" d="M145.0 47.0 L253.0 47.0 L253.0 169.0" /><polygon style="fill:#000000; stroke:#000000;" points=" 258 159 253 169 248 159 253 161" /><path style="fill:none; stroke:#000000;stroke-width:1" d="M199.0 251.0 L120.0 308.0" /><polygon style="fill:#000000; stroke:#000000;" points=" 131 306 120 308 125 298 126 303" /><path style="fill:none; stroke:#000000;stroke-width:1" d="M519.0 78.0 L284.0 78.0 L263.0 169.0" /><polygon style="fill:#000000; stroke:#000000;" points=" 270 160 263 169 260 158 265 161" /><path style="fill:none; stroke:#000000;stroke-width:1" d="M590.0 830.0 L778.0 642.0 L754.0 344.0 L592.0 107.0" /><polygon style="fill:#000000; stroke:#000000;" points=" 594 118 592 107 602 112 597 114" /><path style="fill:none; stroke:#000000;stroke-width:1" d="M670.0 589.0 L670.0 424.0 L581.0 107.0" /><polygon style="fill:#000000; stroke:#000000;" points=" 579 118 581 107 589 115 583 115" /><path style="fill:none; stroke:#000000;stroke-width:1" d="M885.0 719.0 L853.0 320.0 L606.0 107.0" /><polygon style="fill:#000000; stroke:#000000;" points=" 610 117 606 107 617 110 612 112" /><path style="fill:none; stroke:#000000;stroke-width:1" d="M405.0 514.0 L573.0 514.0 L573.0 467.0 L573.0 107.0" /><polygon style="fill:#000000; stroke:#000000;" points=" 568 117 573 107 578 117 573 115" /><path style="fill:none; stroke:#000000;stroke-width:1" d="M120.0 324.0 L349.0 275.0 L540.0 107.0" /><polygon style="fill:#000000; stroke:#000000;" points=" 529 110 540 107 536 117 534 112" /><path style="fill:none; stroke:#000000;stroke-width:1" d="M546.0 637.0 L639.0 640.0" /><polygon style="fill:#000000; stroke:#000000;" points=" 629 635 639 640 629 645 631 640" /><path style="fill:none; stroke:#000000;stroke-width:1" d="M376.0 566.0 L379.0 641.0 L439.0 638.0" /><polygon style="fill:#000000; stroke:#000000;" points=" 429 634 439 638 429 643 431 638" /><path style="fill:none; stroke:#000000;stroke-width:1" d="M120.0 331.0 L492.0 331.0 L492.0 593.0" /><polygon style="fill:#000000; stroke:#000000;" points=" 497 583 492 593 487 583 492 585" /><path style="fill:none; stroke:#000000;stroke-width:1" d="M639.0 664.0 L504.0 766.0 L246.0 798.0" /><polygon style="fill:#000000; stroke:#000000;" points=" 257 802 246 798 255 792 254 797" /><path style="fill:none; stroke:#000000;stroke-width:1" d="M246.0 813.0 L529.0 856.0" /><polygon style="fill:#000000; stroke:#000000;" points=" 520 850 529 856 518 859 521 855" /><path style="fill:none; stroke:#000000;stroke-width:1" d="M590.0 862.0 L729.0 869.0" /><polygon style="fill:#000000; stroke:#000000;" points=" 719 864 729 869 719 873 721 869" /><path style="fill:none; stroke:#000000;stroke-width:1" d="M529.0 868.0 L456.0 887.0 L325.0 887.0" /><polygon style="fill:#000000; stroke:#000000;" points=" 335 892 325 887 335 882 333 887" /><polygon style="fill:#000000; stroke:#000000;" points=" 525 874 513 867" /><path style="fill:none; stroke:#000000;stroke-width:1" d="M828.0 829.0 L859.0 800.0" /><polygon style="fill:#000000; stroke:#000000;" points=" 848 803 859 800 855 810 853 805" /><path style="fill:none; stroke:#000000;stroke-width:1" d="M920.0 764.0 L980.0 750.0" /><polygon style="fill:#000000; stroke:#000000;" points=" 969 747 980 750 971 757 972 752" /><path style="fill:none; stroke:#000000;stroke-width:1" d="M890.0 822.0 L890.0 877.0 L949.0 877.0" /><polygon style="fill:#000000; stroke:#000000;" points=" 939 872 949 877 939 882 941 877" /><path style="fill:none; stroke:#000000;stroke-width:1" d="M120.0 343.0 L186.0 369.0 L186.0 451.0" /><polygon style="fill:#000000; stroke:#000000;" points=" 191 441 186 451 181 441 186 443" /><path style="fill:none; stroke:#000000;stroke-width:1" d="M239.0 505.0 L344.0 512.0" /><polygon style="fill:#000000; stroke:#000000;" points=" 334 506 344 512 334 516 336 511" /><defs><linearGradient xmlns:xlink="http://www.w3.org/1999/xlink" xlink:href="#linearGradient66FF6696FF96B6FFB6" id="linearGradient66FF6696FF96B6FFB6_880602704" x1="0" y1="30.0" x2="0" y2="65.0" gradientUnits="userSpaceOnUse" xlink:type="simple" xlink:actuate="onLoad" xlink:show="other" /><linearGradient id="linearGradient66FF6696FF96B6FFB6"><stop style="stop-color:#66FF66;stop-opacity:1;" offset="0.0" id="stop66FF66" /><stop style="stop-color:#96FF96;stop-opacity:1;" offset="0.5" id="stop96FF96" /><stop style="stop-color:#B6FFB6;stop-opacity:1;" offset="1.0" id="stopB6FFB6" /></linearGradient><linearGradient xmlns:xlink="http://www.w3.org/1999/xlink" xlink:href="#linearGradientF8FBFEEDF5FCDEEDFAD4E7F8E2E5E9" id="linearGradientF8FBFEEDF5FCDEEDFAD4E7F8E2E5E9_985339567" x1="0" y1="170.0" x2="0" y2="276.0" gradientUnits="userSpaceOnUse" xlink:type="simple" xlink:actuate="onLoad" xlink:show="other" /><linearGradient id="linearGradientF8FBFEEDF5FCDEEDFAD4E7F8E2E5E9"><stop style="stop-color:#F8FBFE;stop-opacity:1;" offset="0.0" id="stopF8FBFE" /><stop style="stop-color:#EDF5FC;stop-opacity:1;" offset="0.25" id="stopEDF5FC" /><stop style="stop-color:#DEEDFA;stop-opacity:1;" offset="0.5" id="stopDEEDFA" /><stop style="stop-color:#D4E7F8;stop-opacity:1;" offset="0.75" id="stopD4E7F8" /><stop style="stop-color:#E2E5E9;stop-opacity:1;" offset="1.0" id="stopE2E5E9" /></linearGradient><linearGradient xmlns:xlink="http://www.w3.org/1999/xlink" xlink:href="#linearGradientF8FBFEEDF5FCDEEDFAD4E7F8E2E5E9" id="linearGradientF8FBFEEDF5FCDEEDFAD4E7F8E2E5E9_1048872224" x1="0" y1="51.0" x2="0" y2="157.0" gradientUnits="userSpaceOnUse" xlink:type="simple" xlink:actuate="onLoad" xlink:show="other" /><linearGradient xmlns:xlink="http://www.w3.org/1999/xlink" xlink:href="#linearGradientF8FBFEEDF5FCDEEDFAD4E7F8E2E5E9" id="linearGradientF8FBFEEDF5FCDEEDFAD4E7F8E2E5E9_2072386708" x1="0" y1="594.0" x2="0" y2="700.0" gradientUnits="userSpaceOnUse" xlink:type="simple" xlink:actuate="onLoad" xlink:show="other" /><linearGradient xmlns:xlink="http://www.w3.org/1999/xlink" xlink:href="#linearGradientFAFBFCFFFFCC" id="linearGradientFAFBFCFFFFCC_677077978" x1="0" y1="590.0" x2="0" y2="650.0" gradientUnits="userSpaceOnUse" xlink:type="simple" xlink:actuate="onLoad" xlink:show="other" /><linearGradient id="linearGradientFAFBFCFFFFCC"><stop style="stop-color:#FAFBFC;stop-opacity:1;" offset="0.0" id="stopFAFBFC" /><stop style="stop-color:#FFFFCC;stop-opacity:1;" offset="1.0" id="stopFFFFCC" /></linearGradient><linearGradient xmlns:xlink="http://www.w3.org/1999/xlink" xlink:href="#linearGradientF8FBFEEDF5FCDEEDFAD4E7F8E2E5E9" id="linearGradientF8FBFEEDF5FCDEEDFAD4E7F8E2E5E9_1245120016" x1="0" y1="770.0" x2="0" y2="876.0" gradientUnits="userSpaceOnUse" xlink:type="simple" xlink:actuate="onLoad" xlink:show="other" /><linearGradient xmlns:xlink="http://www.w3.org/1999/xlink" xlink:href="#linearGradientFAFBFCFFFFCC" id="linearGradientFAFBFCFFFFCC_1342187507" x1="0" y1="810.0" x2="0" y2="870.0" gradientUnits="userSpaceOnUse" xlink:type="simple" xlink:actuate="onLoad" xlink:show="other" /><linearGradient xmlns:xlink="http://www.w3.org/1999/xlink" xlink:href="#linearGradientF8FBFEEDF5FCDEEDFAD4E7F8E2E5E9" id="linearGradientF8FBFEEDF5FCDEEDFAD4E7F8E2E5E9_464118747" x1="0" y1="830.0" x2="0" y2="936.0" gradientUnits="userSpaceOnUse" xlink:type="simple" xlink:actuate="onLoad" xlink:show="other" /><linearGradient xmlns:xlink="http://www.w3.org/1999/xlink" xlink:href="#linearGradientFAFBFCFFFFCC" id="linearGradientFAFBFCFFFFCC_1746867911" x1="0" y1="720.0" x2="0" y2="780.0" gradientUnits="userSpaceOnUse" xlink:type="simple" xlink:actuate="onLoad" xlink:show="other" /><linearGradient xmlns:xlink="http://www.w3.org/1999/xlink" xlink:href="#linearGradientFAFBFCFFFFCC" id="linearGradientFAFBFCFFFFCC_451578450" x1="0" y1="280.0" x2="0" y2="340.0" gradientUnits="userSpaceOnUse" xlink:type="simple" xlink:actuate="onLoad" xlink:show="other" /><linearGradient xmlns:xlink="http://www.w3.org/1999/xlink" xlink:href="#linearGradientF8FBFEEDF5FCDEEDFAD4E7F8E2E5E9" id="linearGradientF8FBFEEDF5FCDEEDFAD4E7F8E2E5E9_1258555715" x1="0" y1="452.0" x2="0" y2="558.0" gradientUnits="userSpaceOnUse" xlink:type="simple" xlink:actuate="onLoad" xlink:show="other" /><linearGradient xmlns:xlink="http://www.w3.org/1999/xlink" xlink:href="#linearGradientFAFBFCFFFFCC" id="linearGradientFAFBFCFFFFCC_535272643" x1="0" y1="464.0" x2="0" y2="524.0" gradientUnits="userSpaceOnUse" xlink:type="simple" xlink:actuate="onLoad" xlink:show="other" /><linearGradient xmlns:xlink="http://www.w3.org/1999/xlink" xlink:href="#linearGradientFF6666FF9696FFB6B6" id="linearGradientFF6666FF9696FFB6B6_257820886" x1="0" y1="870.0" x2="0" y2="905.0" gradientUnits="userSpaceOnUse" xlink:type="simple" xlink:actuate="onLoad" xlink:show="other" /><linearGradient id="linearGradientFF6666FF9696FFB6B6"><stop style="stop-color:#FF6666;stop-opacity:1;" offset="0.0" id="stopFF6666" /><stop style="stop-color:#FF9696;stop-opacity:1;" offset="0.5" id="stopFF9696" /><stop style="stop-color:#FFB6B6;stop-opacity:1;" offset="1.0" id="stopFFB6B6" /></linearGradient><linearGradient xmlns:xlink="http://www.w3.org/1999/xlink" xlink:href="#linearGradientFF6666FF9696FFB6B6" id="linearGradientFF6666FF9696FFB6B6_1101577077" x1="0" y1="730.0" x2="0" y2="765.0" gradientUnits="userSpaceOnUse" xlink:type="simple" xlink:actuate="onLoad" xlink:show="other" /><linearGradient xmlns:xlink="http://www.w3.org/1999/xlink" xlink:href="#linearGradientFF6666FF9696FFB6B6" id="linearGradientFF6666FF9696FFB6B6_705559570" x1="0" y1="860.0" x2="0" y2="895.0" gradientUnits="userSpaceOnUse" xlink:type="simple" xlink:actuate="onLoad" xlink:show="other" /></defs></svg>
